<svg width="242" height="235" viewBox="0 0 242 235" fill="none" xmlns="http://www.w3.org/2000/svg">
<path d="M164.85 86.1475L179.822 71.1505C188.056 62.9025 195.12 56.1545 195.521 56.1545C196.545 56.1545 203.318 62.2015 203.318 63.1165C203.318 63.5305 196.236 70.2515 187.581 78.0505C177.401 87.2245 171.197 92.1295 170.01 91.9435C169.001 91.7845 167.427 90.4155 166.513 88.9005L164.85 86.1475Z" fill="url(#paint0_linear_2110_66)"/>
<path d="M41.3179 65.9585C41.3179 65.5545 42.7149 63.6335 44.4219 61.6895C46.1289 59.7455 48.0469 58.1545 48.6849 58.1545C49.3229 58.1545 56.122 64.4435 63.794 72.1305L77.744 86.1075L75.6729 88.8805C74.5339 90.4065 72.891 91.6545 72.023 91.6545C70.417 91.6545 41.3179 67.3025 41.3179 65.9585Z" fill="url(#paint1_linear_2110_66)"/>
<path d="M0.317938 123.448C-2.27206 122.457 10.5109 120.683 55.3179 115.814C63.8249 114.889 63.7859 114.858 64.1119 122.904C64.3379 128.478 64.0929 130.154 63.0519 130.154C61.6719 130.154 29.9079 127.012 11.8179 125.086C6.31794 124.501 1.14294 123.763 0.317938 123.448Z" fill="url(#paint2_linear_2110_66)"/>
<path d="M178.331 128.662C177.233 127.983 176.938 119.309 177.925 116.736C178.668 114.801 178.722 114.8 196.461 116.655C225.952 119.737 241.879 121.926 241.026 122.779C239.68 124.125 180.044 129.721 178.331 128.662Z" fill="url(#paint3_linear_2110_66)"/>
<path d="M165.031 157.063L167.824 154.147L170.618 151.232L173.559 153.326C177.88 156.404 197.768 173.292 198.116 174.181C198.459 175.056 190.074 182.154 188.697 182.154C187.879 182.154 177.213 170.991 168.351 160.859L165.031 157.063Z" fill="url(#paint4_linear_2110_66)"/>
<path d="M45.786 173.206C46.17 172.585 51.9589 167.602 58.6509 162.134C65.3429 156.665 71.2959 152.183 71.8809 152.173C72.4659 152.162 74.2479 153.515 75.841 155.178L78.739 158.202L66.794 170.178C60.224 176.765 54.3709 182.154 53.7869 182.154C51.9719 182.154 45.045 174.406 45.786 173.206Z" fill="url(#paint5_linear_2110_66)"/>
<path fill-rule="evenodd" clip-rule="evenodd" d="M120.318 0.573482C120.318 0.987482 117.19 13.3765 113.368 28.1045C101.884 72.3495 93.5399 95.3275 82.8129 112.248L77.1539 121.175L85.5939 137.996C96.5949 159.92 100.418 169.897 110.749 203.654C115.463 219.054 119.814 232.779 120.419 234.154C121.392 236.365 122.247 234.114 127.827 214.654C138.165 178.598 147.309 154.302 158.378 133.48C161.645 127.335 164.318 121.811 164.318 121.206C164.318 120.6 162.525 117.266 160.333 113.796C148.376 94.8635 138.425 67.6435 126.281 20.6545C121.631 2.66248 120.318 -1.76052 120.318 0.573482ZM119.014 178.154C118.169 162.903 118.856 74.8925 119.937 59.9045C120.285 55.0925 120.85 51.1615 121.193 51.1695C121.537 51.1775 123.098 56.4655 124.662 62.9195C128.903 80.4175 133.749 94.2255 140.463 107.946L146.479 120.237L141.267 131.946C138.401 138.385 132.403 154.679 127.937 168.154L119.818 192.654L119.014 178.154Z" fill="url(#paint6_linear_2110_66)"/>
<defs>
<linearGradient id="paint0_linear_2110_66" x1="-11.32" y1="-6.22328e-07" x2="163.297" y2="286.523" gradientUnits="userSpaceOnUse">
<stop stop-color="#6EF7D8"/>
<stop offset="0.5" stop-color="#2BE6BC"/>
<stop offset="1" stop-color="#1EB496"/>
</linearGradient>
<linearGradient id="paint1_linear_2110_66" x1="-11.32" y1="-6.22328e-07" x2="163.297" y2="286.523" gradientUnits="userSpaceOnUse">
<stop stop-color="#6EF7D8"/>
<stop offset="0.5" stop-color="#2BE6BC"/>
<stop offset="1" stop-color="#1EB496"/>
</linearGradient>
<linearGradient id="paint2_linear_2110_66" x1="-11.32" y1="-6.22328e-07" x2="163.297" y2="286.523" gradientUnits="userSpaceOnUse">
<stop stop-color="#6EF7D8"/>
<stop offset="0.5" stop-color="#2BE6BC"/>
<stop offset="1" stop-color="#1EB496"/>
</linearGradient>
<linearGradient id="paint3_linear_2110_66" x1="-11.32" y1="-6.22328e-07" x2="163.297" y2="286.523" gradientUnits="userSpaceOnUse">
<stop stop-color="#6EF7D8"/>
<stop offset="0.5" stop-color="#2BE6BC"/>
<stop offset="1" stop-color="#1EB496"/>
</linearGradient>
<linearGradient id="paint4_linear_2110_66" x1="-11.32" y1="-6.22328e-07" x2="163.297" y2="286.523" gradientUnits="userSpaceOnUse">
<stop stop-color="#6EF7D8"/>
<stop offset="0.5" stop-color="#2BE6BC"/>
<stop offset="1" stop-color="#1EB496"/>
</linearGradient>
<linearGradient id="paint5_linear_2110_66" x1="-11.32" y1="-6.22328e-07" x2="163.297" y2="286.523" gradientUnits="userSpaceOnUse">
<stop stop-color="#6EF7D8"/>
<stop offset="0.5" stop-color="#2BE6BC"/>
<stop offset="1" stop-color="#1EB496"/>
</linearGradient>
<linearGradient id="paint6_linear_2110_66" x1="-11.32" y1="-6.22328e-07" x2="163.297" y2="286.523" gradientUnits="userSpaceOnUse">
<stop stop-color="#6EF7D8"/>
<stop offset="0.5" stop-color="#2BE6BC"/>
<stop offset="1" stop-color="#1EB496"/>
</linearGradient>
</defs>
</svg>
