<svg width="256" height="256" viewBox="0 0 256 256" fill="none" xmlns="http://www.w3.org/2000/svg">
<g clip-path="url(#clip0_2244_964)">
<g opacity="0.95">
<path d="M41.5 78H36.5C35.6716 78 35 78.6716 35 79.5V84.5C35 85.3284 35.6716 86 36.5 86H41.5C42.3284 86 43 85.3284 43 84.5V79.5C43 78.6716 42.3284 78 41.5 78Z" fill="#10B981"/>
<path opacity="0.78" d="M52.5 95H48.5C47.6716 95 47 95.6716 47 96.5V100.5C47 101.328 47.6716 102 48.5 102H52.5C53.3284 102 54 101.328 54 100.5V96.5C54 95.6716 53.3284 95 52.5 95Z" fill="#2BE6BC"/>
<path d="M217.5 84H212.5C211.672 84 211 84.6716 211 85.5V90.5C211 91.3284 211.672 92 212.5 92H217.5C218.328 92 219 91.3284 219 90.5V85.5C219 84.6716 218.328 84 217.5 84Z" fill="#2BE6BC"/>
</g>
<path opacity="0.78" d="M128 221C162.242 221 190 216.523 190 211C190 205.477 162.242 201 128 201C93.7583 201 66 205.477 66 211C66 216.523 93.7583 221 128 221Z" fill="#CFF8EE"/>
<path d="M63.0001 125C42.0001 134 39.0001 162 58.0001 170C69.0001 164 73.0001 145 63.0001 125Z" fill="#E9FFF9" stroke="white" stroke-width="16" stroke-linejoin="round"/>
<path d="M63.0001 125C42.0001 134 39.0001 162 58.0001 170C69.0001 164 73.0001 145 63.0001 125Z" fill="#E9FFF9" stroke="#2BE6BC" stroke-width="5" stroke-linejoin="round"/>
<path d="M191 122C212 111 222 88 210 76C190 84 181 106 191 122Z" fill="#E9FFF9" stroke="white" stroke-width="16" stroke-linejoin="round"/>
<path d="M191 122C212 111 222 88 210 76C190 84 181 106 191 122Z" fill="#E9FFF9" stroke="#2BE6BC" stroke-width="5" stroke-linejoin="round"/>
<path d="M58 148C58 91 83 49 128 49C173 49 198 91 198 148C198 158 196 166 190 174H181V188H167V177H153V196H135V182H121V196H103V177H89V188H75V174H66C60 166 58 158 58 148Z" fill="url(#paint0_linear_2244_964)" stroke="white" stroke-width="16" stroke-linejoin="round"/>
<path d="M58 148C58 91 83 49 128 49C173 49 198 91 198 148C198 158 196 166 190 174H181V188H167V177H153V196H135V182H121V196H103V177H89V188H75V174H66C60 166 58 158 58 148Z" fill="url(#paint1_linear_2244_964)" stroke="#2BE6BC" stroke-width="5" stroke-linejoin="round"/>
<path opacity="0.88" d="M83 72C74 79 69 89 66 100" stroke="white" stroke-width="6" stroke-linecap="round"/>
<path opacity="0.76" d="M82 143C89.732 143 96 139.418 96 135C96 130.582 89.732 127 82 127C74.268 127 68 130.582 68 135C68 139.418 74.268 143 82 143Z" fill="#77EFD1"/>
<path opacity="0.76" d="M174 143C181.732 143 188 139.418 188 135C188 130.582 181.732 127 174 127C166.268 127 160 130.582 160 135C160 139.418 166.268 143 174 143Z" fill="#77EFD1"/>
<path d="M101 130C107.627 130 113 123.284 113 115C113 106.716 107.627 100 101 100C94.3726 100 89 106.716 89 115C89 123.284 94.3726 130 101 130Z" fill="#0D1117"/>
<path d="M96 112.5C97.933 112.5 99.5 110.933 99.5 109C99.5 107.067 97.933 105.5 96 105.5C94.067 105.5 92.5 107.067 92.5 109C92.5 110.933 94.067 112.5 96 112.5Z" fill="white"/>
<path d="M145 115C151 121 160 121 166 115" stroke="#0D1117" stroke-width="5" stroke-linecap="round"/>
<path d="M119 128L132 138L119 148" stroke="#0D1117" stroke-width="5.5" stroke-linecap="round" stroke-linejoin="round"/>
<path d="M145 148H158" stroke="#0D1117" stroke-width="5.5" stroke-linecap="round"/>
<path d="M194.365 159.287L172.316 145.509C166.696 141.997 159.293 143.707 155.781 149.327L155.251 150.175C151.739 155.795 153.448 163.199 159.068 166.711L181.117 180.489C186.738 184.001 194.141 182.291 197.653 176.671L198.183 175.823C201.695 170.203 199.986 162.799 194.365 159.287Z" fill="#CCFFF2" stroke="white" stroke-width="12"/>
<path d="M194.365 159.287L172.316 145.509C166.696 141.997 159.293 143.707 155.781 149.327L155.251 150.175C151.739 155.795 153.448 163.199 159.068 166.711L181.117 180.489C186.738 184.001 194.141 182.291 197.653 176.671L198.183 175.823C201.695 170.203 199.986 162.799 194.365 159.287Z" fill="#CCFFF2" stroke="#2BE6BC" stroke-width="4"/>
<path d="M175.71 160.837C176.74 161.481 178.098 161.167 178.741 160.137C179.385 159.106 179.072 157.749 178.041 157.105C177.011 156.461 175.654 156.775 175.01 157.805C174.366 158.836 174.679 160.193 175.71 160.837Z" fill="#10B981"/>
<path d="M184.19 166.136C185.221 166.779 186.578 166.466 187.222 165.436C187.866 164.405 187.552 163.048 186.522 162.404C185.492 161.76 184.134 162.074 183.49 163.104C182.847 164.134 183.16 165.492 184.19 166.136Z" fill="#10B981"/>
<path d="M171.471 167.622C172.501 168.266 173.858 167.952 174.502 166.922C175.146 165.892 174.833 164.534 173.802 163.89C172.772 163.247 171.415 163.56 170.771 164.59C170.127 165.621 170.44 166.978 171.471 167.622Z" fill="#10B981"/>
<path d="M179.951 172.921C180.981 173.565 182.339 173.251 182.983 172.221C183.626 171.19 183.313 169.833 182.283 169.189C181.252 168.545 179.895 168.859 179.251 169.889C178.607 170.92 178.921 172.277 179.951 172.921Z" fill="#10B981"/>
<path d="M218 70L233 60ZM222 87H240ZM217 104L233 115Z" fill="black"/>
<path d="M218 70L233 60M222 87H240M217 104L233 115" stroke="white" stroke-width="11" stroke-linecap="round"/>
<path d="M218 70L233 60ZM222 87H240ZM217 104L233 115Z" fill="black"/>
<path d="M218 70L233 60M222 87H240M217 104L233 115" stroke="#2BE6BC" stroke-width="5" stroke-linecap="round"/>
</g>
<defs>
<linearGradient id="paint0_linear_2244_964" x1="2.95043e-06" y1="40" x2="2.95043e-06" y2="205" gradientUnits="userSpaceOnUse">
<stop stop-color="white"/>
<stop offset="0.72" stop-color="#F4FFFC"/>
<stop offset="1" stop-color="#E3FCF5"/>
</linearGradient>
<linearGradient id="paint1_linear_2244_964" x1="2.95043e-06" y1="40" x2="2.95043e-06" y2="205" gradientUnits="userSpaceOnUse">
<stop stop-color="white"/>
<stop offset="0.72" stop-color="#F4FFFC"/>
<stop offset="1" stop-color="#E3FCF5"/>
</linearGradient>
<clipPath id="clip0_2244_964">
<rect width="256" height="256" fill="white"/>
</clipPath>
</defs>
</svg>
