<svg width="256" height="256" viewBox="0 0 256 256" fill="none" xmlns="http://www.w3.org/2000/svg">
<g clip-path="url(#clip0_2244_996)">
<g opacity="0.95">
<path d="M41.5 78H36.5C35.6716 78 35 78.6716 35 79.5V84.5C35 85.3284 35.6716 86 36.5 86H41.5C42.3284 86 43 85.3284 43 84.5V79.5C43 78.6716 42.3284 78 41.5 78Z" fill="#10B981"/>
<path opacity="0.78" d="M52.5 95H48.5C47.6716 95 47 95.6716 47 96.5V100.5C47 101.328 47.6716 102 48.5 102H52.5C53.3284 102 54 101.328 54 100.5V96.5C54 95.6716 53.3284 95 52.5 95Z" fill="#2BE6BC"/>
<path d="M217.5 84H212.5C211.672 84 211 84.6716 211 85.5V90.5C211 91.3284 211.672 92 212.5 92H217.5C218.328 92 219 91.3284 219 90.5V85.5C219 84.6716 218.328 84 217.5 84Z" fill="#2BE6BC"/>
<path opacity="0.78" d="M231.5 101H227.5C226.672 101 226 101.672 226 102.5V106.5C226 107.328 226.672 108 227.5 108H231.5C232.328 108 233 107.328 233 106.5V102.5C233 101.672 232.328 101 231.5 101Z" fill="#10B981"/>
</g>
<path opacity="0.78" d="M128 221C162.242 221 190 216.523 190 211C190 205.477 162.242 201 128 201C93.7583 201 66 205.477 66 211C66 216.523 93.7583 221 128 221Z" fill="#CFF8EE"/>
<path d="M75.9997 145C62.9997 153 60.9997 171 75.9997 178C87.9997 171 90.9997 155 82.9997 144L75.9997 145Z" fill="#E9FFF9" stroke="white" stroke-width="16" stroke-linejoin="round"/>
<path d="M75.9997 145C62.9997 153 60.9997 171 75.9997 178C87.9997 171 90.9997 155 82.9997 144L75.9997 145Z" fill="#E9FFF9" stroke="#2BE6BC" stroke-width="5" stroke-linejoin="round"/>
<path d="M180 145C193 153 195 171 180 178C168 171 165 155 173 144L180 145Z" fill="#E9FFF9" stroke="white" stroke-width="16" stroke-linejoin="round"/>
<path d="M180 145C193 153 195 171 180 178C168 171 165 155 173 144L180 145Z" fill="#E9FFF9" stroke="#2BE6BC" stroke-width="5" stroke-linejoin="round"/>
<path d="M58 148C58 91 83 49 128 49C173 49 198 91 198 148C198 158 196 166 190 174H181V188H167V177H153V196H135V182H121V196H103V177H89V188H75V174H66C60 166 58 158 58 148Z" fill="url(#paint0_linear_2244_996)" stroke="white" stroke-width="16" stroke-linejoin="round"/>
<path d="M58 148C58 91 83 49 128 49C173 49 198 91 198 148C198 158 196 166 190 174H181V188H167V177H153V196H135V182H121V196H103V177H89V188H75V174H66C60 166 58 158 58 148Z" fill="url(#paint1_linear_2244_996)" stroke="#2BE6BC" stroke-width="5" stroke-linejoin="round"/>
<path opacity="0.88" d="M82 72C73 79 68 89 65 100" stroke="white" stroke-width="6" stroke-linecap="round"/>
<path opacity="0.76" d="M82 143C89.732 143 96 139.418 96 135C96 130.582 89.732 127 82 127C74.268 127 68 130.582 68 135C68 139.418 74.268 143 82 143Z" fill="#77EFD1"/>
<path opacity="0.76" d="M174 143C181.732 143 188 139.418 188 135C188 130.582 181.732 127 174 127C166.268 127 160 130.582 160 135C160 139.418 166.268 143 174 143Z" fill="#77EFD1"/>
<path d="M101 130C107.627 130 113 123.284 113 115C113 106.716 107.627 100 101 100C94.3726 100 89 106.716 89 115C89 123.284 94.3726 130 101 130Z" fill="#0D1117"/>
<path d="M155 130C161.627 130 167 123.284 167 115C167 106.716 161.627 100 155 100C148.373 100 143 106.716 143 115C143 123.284 148.373 130 155 130Z" fill="#0D1117"/>
<path d="M96 112.5C97.933 112.5 99.5 110.933 99.5 109C99.5 107.067 97.933 105.5 96 105.5C94.067 105.5 92.5 107.067 92.5 109C92.5 110.933 94.067 112.5 96 112.5Z" fill="white"/>
<path d="M150 112.5C151.933 112.5 153.5 110.933 153.5 109C153.5 107.067 151.933 105.5 150 105.5C148.067 105.5 146.5 107.067 146.5 109C146.5 110.933 148.067 112.5 150 112.5Z" fill="white"/>
<path d="M119 128L132 138L119 148" stroke="#0D1117" stroke-width="5.5" stroke-linecap="round" stroke-linejoin="round"/>
<path d="M145 148H158" stroke="#0D1117" stroke-width="5.5" stroke-linecap="round"/>
<path d="M62.6495 118C41.6495 127 38.6495 155 57.6495 163C68.6495 157 72.6495 138 62.6495 118Z" fill="#E9FFF9" stroke="#2BE6BC" stroke-width="5" stroke-linejoin="round"/>
<path d="M192.649 118C213.649 127 216.649 155 197.649 163C186.649 157 182.649 138 192.649 118Z" fill="#E9FFF9" stroke="#2BE6BC" stroke-width="5" stroke-linejoin="round"/>
<path d="M128 193C145.673 193 160 178.673 160 161C160 143.327 145.673 129 128 129C110.327 129 96 143.327 96 161C96 178.673 110.327 193 128 193Z" fill="#E5FFF8" stroke="white" stroke-width="13"/>
<path d="M127.999 190.256C144.158 190.256 157.256 177.158 157.256 160.999C157.256 144.841 144.158 131.742 127.999 131.742C111.841 131.742 98.7422 144.841 98.7422 160.999C98.7422 177.158 111.841 190.256 127.999 190.256Z" fill="#E5FFF8" stroke="#10B981" stroke-width="5"/>
<path d="M142.184 168.065C139.239 175.395 130.111 180.95 121.203 177.372C113.482 174.271 109.855 167.848 110.773 160.413" stroke="#10B981" stroke-width="7" stroke-linecap="round"/>
<path d="M114.605 161.959L111.339 156.169L106.157 161.294" stroke="#10B981" stroke-width="7" stroke-linecap="round" stroke-linejoin="round"/>
<path d="M117.221 151.717C120.303 144.044 129.284 140.798 137.697 144.178C144.308 146.833 147.693 152.305 147.963 158.583" stroke="#10B981" stroke-width="7" stroke-linecap="round"/>
<path d="M142.952 156.76L147.438 160.597L150.83 155.636" stroke="#10B981" stroke-width="7" stroke-linecap="round" stroke-linejoin="round"/>
</g>
<defs>
<linearGradient id="paint0_linear_2244_996" x1="2.95043e-06" y1="40" x2="2.95043e-06" y2="205" gradientUnits="userSpaceOnUse">
<stop stop-color="white"/>
<stop offset="0.72" stop-color="#F4FFFC"/>
<stop offset="1" stop-color="#E3FCF5"/>
</linearGradient>
<linearGradient id="paint1_linear_2244_996" x1="2.95043e-06" y1="40" x2="2.95043e-06" y2="205" gradientUnits="userSpaceOnUse">
<stop stop-color="white"/>
<stop offset="0.72" stop-color="#F4FFFC"/>
<stop offset="1" stop-color="#E3FCF5"/>
</linearGradient>
<clipPath id="clip0_2244_996">
<rect width="256" height="256" fill="white"/>
</clipPath>
</defs>
</svg>
