<svg width="256" height="256" viewBox="0 0 256 256" fill="none" xmlns="http://www.w3.org/2000/svg">
<g opacity="0.95">
<path d="M41 74H35C34.4477 74 34 74.4477 34 75V81C34 81.5523 34.4477 82 35 82H41C41.5523 82 42 81.5523 42 81V75C42 74.4477 41.5523 74 41 74Z" fill="#10B981"/>
<path opacity="0.75" d="M54 90H49C48.4477 90 48 90.4477 48 91V96C48 96.5523 48.4477 97 49 97H54C54.5523 97 55 96.5523 55 96V91C55 90.4477 54.5523 90 54 90Z" fill="#2BE6BC"/>
<path d="M221 82H215C214.448 82 214 82.4477 214 83V89C214 89.5523 214.448 90 215 90H221C221.552 90 222 89.5523 222 89V83C222 82.4477 221.552 82 221 82Z" fill="#2BE6BC"/>
<path opacity="0.75" d="M236 98H231C230.448 98 230 98.4477 230 99V104C230 104.552 230.448 105 231 105H236C236.552 105 237 104.552 237 104V99C237 98.4477 236.552 98 236 98Z" fill="#10B981"/>
</g>
<path d="M52 146C52 92 78 50 128 50C178 50 204 92 204 146V164C194 170 186 169 178 162V188H160V174H146V194H126V178H110V188H92V164C82 171 66 172 52 164V146Z" fill="url(#paint0_linear_2244_100)" stroke="#2BE6BC" stroke-width="6" stroke-linejoin="round"/>
<path opacity="0.55" d="M186 146C194.284 146 201 142.418 201 138C201 133.582 194.284 130 186 130C177.716 130 171 133.582 171 138C171 142.418 177.716 146 186 146Z" fill="#2BE6BC"/>
<path opacity="0.55" d="M70 146C78.2843 146 85 142.418 85 138C85 133.582 78.2843 130 70 130C61.7157 130 55 133.582 55 138C55 142.418 61.7157 146 70 146Z" fill="#2BE6BC"/>
<path d="M63.9996 122C41.9996 130 35.9996 156 51.9996 166C61.9996 160 65.9996 145 63.9996 122Z" fill="#DDFCF4" stroke="#2BE6BC" stroke-width="5"/>
<path d="M192 122C214 130 220 156 204 166C194 160 190 145 192 122Z" fill="#DDFCF4" stroke="#2BE6BC" stroke-width="5"/>
<path opacity="0.7" d="M128 213C166.66 213 198 208.075 198 202C198 195.925 166.66 191 128 191C89.3401 191 58 195.925 58 202C58 208.075 89.3401 213 128 213Z" fill="#D7F8EF"/>
<path opacity="0.65" d="M86 72C72 78 66 88 62 100" stroke="white" stroke-width="9" stroke-linecap="round"/>
<path d="M91 121C98.1797 121 104 115.18 104 108C104 100.82 98.1797 95 91 95C83.8203 95 78 100.82 78 108C78 115.18 83.8203 121 91 121Z" fill="#0D1117"/>
<path d="M165 121C172.18 121 178 115.18 178 108C178 100.82 172.18 95 165 95C157.82 95 152 100.82 152 108C152 115.18 157.82 121 165 121Z" fill="#0D1117"/>
<path opacity="0.9" d="M87 107C89.2091 107 91 105.209 91 103C91 100.791 89.2091 99 87 99C84.7909 99 83 100.791 83 103C83 105.209 84.7909 107 87 107Z" fill="white"/>
<path opacity="0.9" d="M161 107C163.209 107 165 105.209 165 103C165 100.791 163.209 99 161 99C158.791 99 157 100.791 157 103C157 105.209 158.791 107 161 107Z" fill="white"/>
<path d="M134.645 143.008L117.145 150.714V145.68L129.126 140.87L128.964 141.131V140.51L129.126 140.771L117.145 135.961V130.927L134.645 138.633V143.008Z" fill="#0D1117"/>
<path d="M167.5 146H150.5C149.119 146 148 147.119 148 148.5C148 149.881 149.119 151 150.5 151H167.5C168.881 151 170 149.881 170 148.5C170 147.119 168.881 146 167.5 146Z" fill="#0D1117"/>
<path d="M128 207C152.301 207 172 187.301 172 163C172 138.699 152.301 119 128 119C103.699 119 84 138.699 84 163C84 187.301 103.699 207 128 207Z" fill="#10B981" stroke="#2BE6BC" stroke-width="6"/>
<path d="M104 160L122 178L156 140" stroke="white" stroke-width="11" stroke-linecap="round" stroke-linejoin="round"/>
<defs>
<linearGradient id="paint0_linear_2244_100" x1="52" y1="50" x2="52" y2="194" gradientUnits="userSpaceOnUse">
<stop stop-color="white"/>
<stop offset="1" stop-color="#DDFCF4"/>
</linearGradient>
</defs>
</svg>
